<?xml version="1.0" encoding="UTF-8"?>
<!DOCTYPE svg PUBLIC "-//W3C//DTD SVG 1.1//EN" "http://www.w3.org/Graphics/SVG/1.1/DTD/svg11.dtd">
<svg xmlns="http://www.w3.org/2000/svg" version="1.1" width="600px" height="600px" style="shape-rendering:geometricPrecision; text-rendering:geometricPrecision; image-rendering:optimizeQuality; fill-rule:evenodd; clip-rule:evenodd" xmlns:xlink="http://www.w3.org/1999/xlink">
<g><path style="opacity:0.969" fill="#040302" d="M 448.5,517.5 C 446.713,519.887 444.713,520.053 442.5,518C 438.639,500.673 435.473,483.173 433,465.5C 432.271,450.078 430.771,434.745 428.5,419.5C 422.411,422.198 416.078,423.865 409.5,424.5C 411.863,454.544 415.863,484.377 421.5,514C 421.227,515.533 420.894,517.033 420.5,518.5C 417.27,518.439 415.437,516.772 415,513.5C 405.151,465.631 401.651,417.298 404.5,368.5C 405.167,367.833 405.833,367.167 406.5,366.5C 407.167,383.5 407.833,400.5 408.5,417.5C 417.023,414.772 425.69,412.439 434.5,410.5C 430.239,391.601 426.405,372.601 423,353.5C 418.743,335.314 410.077,319.647 397,306.5C 387.187,297.597 377.187,288.93 367,280.5C 360.758,307.244 343.925,320.911 316.5,321.5C 295.715,321.024 278.882,312.691 266,296.5C 262.377,291.588 259.544,286.255 257.5,280.5C 257.81,279.262 258.31,279.262 259,280.5C 270.013,298.252 285.513,310.085 305.5,316C 325.002,319.278 341.169,313.445 354,298.5C 356.403,294.365 358.237,290.032 359.5,285.5C 351.4,282.724 346.4,277.058 344.5,268.5C 337.008,268.942 329.675,268.108 322.5,266C 319.143,264.488 317.143,261.988 316.5,258.5C 323.829,259.497 331.162,260.497 338.5,261.5C 360.571,260.265 374.405,248.932 380,227.5C 381.095,200.781 380.429,174.114 378,147.5C 376.235,145.226 374.068,143.559 371.5,142.5C 362.998,144.834 354.332,146.001 345.5,146C 335.6,150.226 325.266,153.06 314.5,154.5C 312.571,154.46 310.738,154.127 309,153.5C 309.127,150.617 309.793,147.95 311,145.5C 302.135,149.009 292.968,151.509 283.5,153C 280.162,158.342 277.995,164.175 277,170.5C 275.716,179.462 274.882,188.462 274.5,197.5C 273.448,197.649 272.448,197.483 271.5,197C 258.746,183.604 251.746,186.104 250.5,204.5C 250.069,214.405 254.736,218.738 264.5,217.5C 265.921,223.226 268.421,228.559 272,233.5C 280.062,239.727 286.895,247.061 292.5,255.5C 287.445,267.391 278.778,275.225 266.5,279C 263.961,279.796 261.628,279.629 259.5,278.5C 261.75,277.87 263.75,276.87 265.5,275.5C 274.256,270.741 280.589,263.741 284.5,254.5C 278.455,247.493 272.455,240.493 266.5,233.5C 265.707,233.931 264.873,234.265 264,234.5C 262.374,233.711 260.874,232.711 259.5,231.5C 256.26,233.191 254.26,232.191 253.5,228.5C 254.167,227.167 254.833,225.833 255.5,224.5C 247.671,221.355 243.671,215.522 243.5,207C 244.088,201.467 245.421,196.134 247.5,191C 244.903,187.223 243.07,183.056 242,178.5C 239.668,161.823 242.835,146.323 251.5,132C 249.003,128.765 249.503,125.931 253,123.5C 253.747,117.036 257.247,115.036 263.5,117.5C 286.214,101.319 311.548,94.1528 339.5,96C 353.001,101.333 366.834,105.499 381,108.5C 381.684,109.784 381.517,110.951 380.5,112C 383.202,114.69 385.702,117.523 388,120.5C 389.006,126.443 388.173,132.11 385.5,137.5C 389.466,143.763 390.299,150.43 388,157.5C 385.074,159.555 383.907,162.388 384.5,166C 386.333,186.467 386.833,206.967 386,227.5C 382.233,248.104 370.399,261.771 350.5,268.5C 352.417,273.25 355.584,276.917 360,279.5C 361.313,278.427 362.813,277.76 364.5,277.5C 392.133,289.967 412.3,309.967 425,337.5C 430.942,362.161 436.775,386.827 442.5,411.5C 442.43,412.772 442.097,413.938 441.5,415C 437.638,416.27 434.304,418.27 431.5,421C 437.816,452.414 443.816,483.914 449.5,515.5C 449.137,516.183 448.804,516.85 448.5,517.5 Z"/></g>
<g><path style="opacity:1" fill="#eab688" d="M 257.5,280.5 C 256.957,280.44 256.624,280.107 256.5,279.5C 257.325,278.614 258.325,278.281 259.5,278.5C 261.628,279.629 263.961,279.796 266.5,279C 278.778,275.225 287.445,267.391 292.5,255.5C 286.895,247.061 280.062,239.727 272,233.5C 268.421,228.559 265.921,223.226 264.5,217.5C 254.736,218.738 250.069,214.405 250.5,204.5C 251.746,186.104 258.746,183.604 271.5,197C 272.448,197.483 273.448,197.649 274.5,197.5C 274.882,188.462 275.716,179.462 277,170.5C 277.995,164.175 280.162,158.342 283.5,153C 292.968,151.509 302.135,149.009 311,145.5C 309.793,147.95 309.127,150.617 309,153.5C 310.738,154.127 312.571,154.46 314.5,154.5C 325.266,153.06 335.6,150.226 345.5,146C 354.332,146.001 362.998,144.834 371.5,142.5C 374.068,143.559 376.235,145.226 378,147.5C 380.429,174.114 381.095,200.781 380,227.5C 374.405,248.932 360.571,260.265 338.5,261.5C 331.162,260.497 323.829,259.497 316.5,258.5C 317.143,261.988 319.143,264.488 322.5,266C 329.675,268.108 337.008,268.942 344.5,268.5C 346.4,277.058 351.4,282.724 359.5,285.5C 358.237,290.032 356.403,294.365 354,298.5C 341.169,313.445 325.002,319.278 305.5,316C 285.513,310.085 270.013,298.252 259,280.5C 258.31,279.262 257.81,279.262 257.5,280.5 Z"/></g>
<g><path style="opacity:1" fill="#130f0b" d="M 357.5,163.5 C 364.999,163.836 371.499,166.503 377,171.5C 377.483,172.448 377.649,173.448 377.5,174.5C 371.401,171.968 365.067,170.135 358.5,169C 356.365,167.444 356.032,165.611 357.5,163.5 Z"/></g>
<g><path style="opacity:1" fill="#130f0c" d="M 321.5,164.5 C 324.249,164.274 326.916,164.607 329.5,165.5C 330.747,167.006 330.747,168.506 329.5,170C 325.106,170.303 320.773,170.97 316.5,172C 312.809,174.019 309.142,175.686 305.5,177C 309.593,171.135 314.926,166.968 321.5,164.5 Z"/></g>
<g><path style="opacity:1" fill="#080604" d="M 319.5,179.5 C 323.24,178.741 324.907,180.241 324.5,184C 324.238,186.547 323.738,189.047 323,191.5C 321.604,193.527 319.938,193.86 318,192.5C 317.002,187.856 317.502,183.523 319.5,179.5 Z"/></g>
<g><path style="opacity:1" fill="#17130f" d="M 365.5,179.5 C 369.176,179.319 371.176,180.986 371.5,184.5C 371.264,187.981 369.764,190.648 367,192.5C 364.034,190.993 362.534,188.493 362.5,185C 362.863,182.808 363.863,180.974 365.5,179.5 Z"/></g>
<g><path style="opacity:1" fill="#120e0b" d="M 254.5,197.5 C 260.289,197.811 265.122,200.144 269,204.5C 269.723,207.125 268.723,208.792 266,209.5C 264.037,208.375 262.204,207.041 260.5,205.5C 258.902,206.485 257.235,206.651 255.5,206C 255.456,203.204 255.123,200.371 254.5,197.5 Z"/></g>
<g><path style="opacity:1" fill="#16110d" d="M 351.5,197.5 C 357.083,197.577 360.416,200.41 361.5,206C 359.332,214.733 353.999,217.4 345.5,214C 343.154,212.987 341.487,211.321 340.5,209C 341.098,207.699 342.098,206.865 343.5,206.5C 346.054,208.944 349.054,210.611 352.5,211.5C 356.283,210.563 357.783,208.229 357,204.5C 355.148,202.043 353.314,199.709 351.5,197.5 Z"/></g>
<g><path style="opacity:1" fill="#0e0b08" d="M 336.5,226.5 C 340.157,228.613 343.991,230.613 348,232.5C 352.398,231.606 356.231,229.606 359.5,226.5C 360.59,230.508 359.256,233.675 355.5,236C 348.19,238.858 341.69,237.691 336,232.5C 335.322,230.402 335.489,228.402 336.5,226.5 Z"/></g>
<g><path style="opacity:0.938" fill="#080707" d="M 258.5,274.5 C 221.816,283.94 193.649,304.94 174,337.5C 161.59,357.743 152.923,379.41 148,402.5C 164.693,413.261 182.86,420.261 202.5,423.5C 204.948,424.473 207.615,424.806 210.5,424.5C 210.5,423.167 210.5,421.833 210.5,420.5C 210.542,413.326 211.709,406.326 214,399.5C 215.144,404.329 215.644,409.329 215.5,414.5C 214.139,446.529 212.306,478.529 210,510.5C 209.912,515.68 209.079,520.68 207.5,525.5C 205.545,526.93 203.879,526.597 202.5,524.5C 204.073,492.809 206.073,461.143 208.5,429.5C 201.014,429.308 193.68,428.141 186.5,426C 177.035,422.764 167.702,419.264 158.5,415.5C 155.701,449.494 153.367,483.494 151.5,517.5C 145.689,518.868 143.022,516.368 143.5,510C 144.519,482.313 147.352,454.813 152,427.5C 152.699,423.035 153.866,418.702 155.5,414.5C 152.199,411.844 148.532,409.678 144.5,408C 142.703,406.406 141.703,404.406 141.5,402C 151.207,356.548 173.874,319.215 209.5,290C 224.163,279.501 240.496,274.334 258.5,274.5 Z"/></g>
<g><path style="opacity:1" fill="#fefefe" d="M 258.5,274.5 C 260.806,274.993 263.139,275.326 265.5,275.5C 263.75,276.87 261.75,277.87 259.5,278.5C 258.325,278.281 257.325,278.614 256.5,279.5C 256.624,280.107 256.957,280.44 257.5,280.5C 259.544,286.255 262.377,291.588 266,296.5C 278.882,312.691 295.715,321.024 316.5,321.5C 343.925,320.911 360.758,307.244 367,280.5C 377.187,288.93 387.187,297.597 397,306.5C 410.077,319.647 418.743,335.314 423,353.5C 426.405,372.601 430.239,391.601 434.5,410.5C 425.69,412.439 417.023,414.772 408.5,417.5C 407.833,400.5 407.167,383.5 406.5,366.5C 406.657,365.127 406.49,363.793 406,362.5C 404.872,364.345 404.372,366.345 404.5,368.5C 401.651,417.298 405.151,465.631 415,513.5C 415.437,516.772 417.27,518.439 420.5,518.5C 420.198,521.059 420.532,523.393 421.5,525.5C 350.319,524.439 278.986,524.439 207.5,525.5C 209.079,520.68 209.912,515.68 210,510.5C 212.306,478.529 214.139,446.529 215.5,414.5C 215.644,409.329 215.144,404.329 214,399.5C 211.709,406.326 210.542,413.326 210.5,420.5C 209.596,421.209 209.263,422.209 209.5,423.5C 207.167,423.5 204.833,423.5 202.5,423.5C 182.86,420.261 164.693,413.261 148,402.5C 152.923,379.41 161.59,357.743 174,337.5C 193.649,304.94 221.816,283.94 258.5,274.5 Z"/></g>
<g><path style="opacity:1" fill="#707070" d="M 406.5,366.5 C 405.833,367.167 405.167,367.833 404.5,368.5C 404.372,366.345 404.872,364.345 406,362.5C 406.49,363.793 406.657,365.127 406.5,366.5 Z"/></g>
<g><path style="opacity:0.998" fill="#ebb788" d="M 202.5,524.5 C 185.404,522.82 168.404,520.486 151.5,517.5C 153.367,483.494 155.701,449.494 158.5,415.5C 167.702,419.264 177.035,422.764 186.5,426C 193.68,428.141 201.014,429.308 208.5,429.5C 206.073,461.143 204.073,492.809 202.5,524.5 Z"/></g>
<g><path style="opacity:0.996" fill="#e8b587" d="M 448.5,517.5 C 448.896,520.044 448.229,522.211 446.5,524C 438.187,524.883 429.853,525.383 421.5,525.5C 420.532,523.393 420.198,521.059 420.5,518.5C 420.894,517.033 421.227,515.533 421.5,514C 415.863,484.377 411.863,454.544 409.5,424.5C 416.078,423.865 422.411,422.198 428.5,419.5C 430.771,434.745 432.271,450.078 433,465.5C 435.473,483.173 438.639,500.673 442.5,518C 444.713,520.053 446.713,519.887 448.5,517.5 Z"/></g>
<g><path style="opacity:1" fill="#696969" d="M 210.5,420.5 C 210.5,421.833 210.5,423.167 210.5,424.5C 207.615,424.806 204.948,424.473 202.5,423.5C 204.833,423.5 207.167,423.5 209.5,423.5C 209.263,422.209 209.596,421.209 210.5,420.5 Z"/></g>
</svg>
